<svg width="38" height="39" viewBox="0 0 38 39" fill="none" xmlns="http://www.w3.org/2000/svg">
<g clip-path="url(#clip0_9_3970)">
<path d="M32.086 7.35234C29.6702 6.24388 27.0797 5.42722 24.3711 4.95948C24.3218 4.95045 24.2725 4.97301 24.2471 5.01813C23.9139 5.6107 23.5449 6.38375 23.2865 6.99136C20.3732 6.55522 17.4749 6.55522 14.6214 6.99136C14.3629 6.37024 13.9804 5.6107 13.6458 5.01813C13.6204 4.97452 13.5711 4.95196 13.5218 4.95948C10.8147 5.42572 8.22414 6.24239 5.80687 7.35234C5.78594 7.36136 5.768 7.37642 5.7561 7.39596C0.842369 14.737 -0.503708 21.8975 0.156632 28.9693C0.15962 29.0039 0.179041 29.037 0.205933 29.0581C3.44787 31.4389 6.58825 32.8842 9.6703 33.8423C9.71963 33.8573 9.77189 33.8393 9.80328 33.7986C10.5323 32.803 11.1822 31.7532 11.7395 30.6493C11.7723 30.5846 11.7409 30.5079 11.6737 30.4823C10.6429 30.0913 9.66133 29.6145 8.71713 29.0731C8.64245 29.0295 8.63647 28.9227 8.70518 28.8715C8.90387 28.7226 9.10262 28.5677 9.29234 28.4113C9.32667 28.3828 9.3745 28.3767 9.41486 28.3948C15.6178 31.2268 22.3333 31.2268 28.4631 28.3948C28.5034 28.3752 28.5513 28.3813 28.5871 28.4098C28.7769 28.5662 28.9756 28.7226 29.1758 28.8715C29.2445 28.9227 29.24 29.0295 29.1653 29.0731C28.2211 29.625 27.2395 30.0913 26.2072 30.4808C26.14 30.5064 26.1101 30.5846 26.143 30.6493C26.7121 31.7517 27.362 32.8015 28.0776 33.7971C28.1075 33.8393 28.1613 33.8573 28.2106 33.8423C31.3076 32.8842 34.448 31.4389 37.6899 29.0581C37.7183 29.037 37.7363 29.0054 37.7392 28.9708C38.5295 20.7951 36.4155 13.6932 32.1353 7.39745C32.1248 7.37642 32.1069 7.36136 32.086 7.35234ZM12.6658 24.6633C10.7982 24.6633 9.25946 22.9488 9.25946 20.8432C9.25946 18.7376 10.7684 17.0231 12.6658 17.0231C14.578 17.0231 16.1019 18.7526 16.072 20.8432C16.072 22.9488 14.5631 24.6633 12.6658 24.6633ZM25.26 24.6633C23.3925 24.6633 21.8537 22.9488 21.8537 20.8432C21.8537 18.7376 23.3626 17.0231 25.26 17.0231C27.1723 17.0231 28.6962 18.7526 28.6663 20.8432C28.6663 22.9488 27.1723 24.6633 25.26 24.6633Z" fill="white"/>
</g>
<defs>
<clipPath id="clip0_9_3970">
<rect width="37.9024" height="37.9024" fill="white" transform="translate(0 0.789551)"/>
</clipPath>
</defs>
</svg>
