<svg width="39" height="38" viewBox="0 0 39 38" fill="none" xmlns="http://www.w3.org/2000/svg">
<g clip-path="url(#clip0_9_3964)">
<path d="M38.7257 18.9512C38.7257 8.48474 30.2409 0 19.7745 0C9.30799 0 0.823242 8.48474 0.823242 18.9512C0.823242 28.4102 7.75339 36.2505 16.8133 37.6722V24.4293H12.0015V18.9512H16.8133V14.776C16.8133 10.0264 19.6427 7.40282 23.9715 7.40282C26.0443 7.40282 28.2137 7.77296 28.2137 7.77296V12.4367H25.824C23.47 12.4367 22.7356 13.8977 22.7356 15.3979V18.9512H27.9916L27.1514 24.4293H22.7356V37.6722C31.7955 36.2505 38.7257 28.4102 38.7257 18.9512Z" fill="white"/>
</g>
<defs>
<clipPath id="clip0_9_3964">
<rect width="37.9024" height="37.9024" fill="white" transform="translate(0.823242)"/>
</clipPath>
</defs>
</svg>
