<svg width="38" height="39" viewBox="0 0 38 39" fill="none" xmlns="http://www.w3.org/2000/svg">
<g clip-path="url(#clip0_9_3953)">
<path fill-rule="evenodd" clip-rule="evenodd" d="M19.0491 1.5791C14.5501 1.58144 10.1987 3.17489 6.77284 6.07452C3.347 8.97416 1.07016 12.9909 0.349445 17.4065C-0.371268 21.8221 0.511134 26.3487 2.83889 30.1768C5.16664 34.0049 8.78794 36.8848 13.0553 38.3018C13.9967 38.4765 14.3513 37.893 14.3513 37.3969C14.3513 36.9008 14.3325 35.4623 14.3262 33.8897C9.05414 35.0286 7.9401 31.6649 7.9401 31.6649C7.08025 29.4807 5.83755 28.9066 5.83755 28.9066C4.11785 27.7396 5.96622 27.7614 5.96622 27.7614C7.87107 27.8956 8.87214 29.7054 8.87214 29.7054C10.5605 32.5854 13.3063 31.7523 14.3858 31.2655C14.5553 30.0455 15.048 29.2155 15.5909 28.7443C11.3795 28.2701 6.95472 26.6537 6.95472 19.4334C6.92862 17.5608 7.62747 15.75 8.90666 14.3754C8.71209 13.9011 8.06249 11.9853 9.0918 9.38295C9.0918 9.38295 10.6828 8.87746 14.3043 11.3144C17.4105 10.4698 20.6878 10.4698 23.794 11.3144C27.4123 8.87746 29.0001 9.38295 29.0001 9.38295C30.0326 11.979 29.383 13.8949 29.1884 14.3754C30.4717 15.7502 31.172 17.5642 31.1435 19.4396C31.1435 26.6756 26.7093 28.2701 22.4916 28.735C23.1695 29.3216 23.7752 30.4667 23.7752 32.2266C23.7752 34.7478 23.7532 36.776 23.7532 37.3969C23.7532 37.8993 24.0952 38.4859 25.0555 38.3018C29.3233 36.8847 32.945 34.0042 35.2727 30.1754C37.6004 26.3467 38.4824 21.8195 37.7608 17.4035C37.0393 12.9874 34.7613 8.97064 31.3343 6.0715C27.9074 3.17236 23.5549 1.57996 19.0554 1.5791H19.0491Z" fill="white"/>
<path d="M7.2744 28.6354C7.2336 28.729 7.08297 28.7571 6.96058 28.6916C6.8382 28.6261 6.7472 28.5044 6.79113 28.4076C6.83506 28.3109 6.98256 28.2859 7.10494 28.3515C7.22733 28.417 7.32147 28.5418 7.2744 28.6354Z" fill="white"/>
<path d="M8.04324 29.4871C7.97825 29.5196 7.90389 29.5287 7.83291 29.5128C7.76192 29.4968 7.69872 29.4569 7.65411 29.3997C7.53172 29.2687 7.5066 29.0877 7.60075 29.0066C7.69489 28.9254 7.86436 28.9629 7.98675 29.0939C8.10914 29.225 8.13738 29.406 8.04324 29.4871Z" fill="white"/>
<path d="M8.7902 30.5698C8.67409 30.651 8.47638 30.5699 8.36654 30.4076C8.33617 30.3785 8.31202 30.3436 8.29552 30.305C8.27902 30.2664 8.27051 30.2249 8.27051 30.1829C8.27051 30.141 8.27902 30.0995 8.29552 30.0609C8.31202 30.0223 8.33617 29.9874 8.36654 29.9583C8.48266 29.8803 8.68037 29.9583 8.7902 30.1174C8.90004 30.2765 8.90318 30.4887 8.7902 30.5698Z" fill="white"/>
<path d="M9.80381 31.6181C9.70025 31.7336 9.49 31.7024 9.3174 31.5464C9.1448 31.3903 9.104 31.1782 9.20755 31.0658C9.31111 30.9535 9.52137 30.9847 9.70024 31.1376C9.87912 31.2905 9.91364 31.5058 9.80381 31.6181Z" fill="white"/>
<path d="M11.2254 32.23C11.1783 32.3767 10.9649 32.4422 10.7515 32.3798C10.5381 32.3174 10.3969 32.1426 10.4377 31.9929C10.4785 31.8431 10.695 31.7745 10.9115 31.8431C11.1281 31.9117 11.2662 32.0771 11.2254 32.23Z" fill="white"/>
<path d="M12.7757 32.3357C12.7757 32.4886 12.5999 32.6196 12.374 32.6227C12.148 32.6259 11.9629 32.5011 11.9629 32.3482C11.9629 32.1953 12.1386 32.0642 12.3646 32.0611C12.5905 32.058 12.7757 32.1797 12.7757 32.3357Z" fill="white"/>
<path d="M14.2192 32.0958C14.2475 32.2487 14.0906 32.4078 13.8646 32.4453C13.6387 32.4827 13.441 32.3922 13.4127 32.2424C13.3845 32.0927 13.5477 31.9304 13.7673 31.8898C13.987 31.8493 14.191 31.9429 14.2192 32.0958Z" fill="white"/>
</g>
<defs>
<clipPath id="clip0_9_3953">
<rect width="37.9024" height="37.9024" fill="white" transform="translate(0.0975342 0.789551)"/>
</clipPath>
</defs>
</svg>
