<?xml version="1.0" encoding="utf-8"?>
<!-- Generator: Adobe Illustrator 26.0.1, SVG Export Plug-In . SVG Version: 6.00 Build 0)  -->
<svg version="1.1" id="Слой_1" xmlns="http://www.w3.org/2000/svg" xmlns:xlink="http://www.w3.org/1999/xlink" x="0px" y="0px"
	 viewBox="0 0 1000 823" style="enable-background:new 0 0 1000 823;" xml:space="preserve">
<style type="text/css">
	.st0{fill:#FFFFFF;}
</style>
<g>
	<g>
		<path class="st0" d="M552.641,346.408h21.654H743.55l3.353-31.61l1.891-17.829c-0.896,0.985-1.781,1.685-2.697,1.953
			c-0.771,0.224-1.578,0.088-2.441-0.462c-0.265-0.169-0.521-0.279-0.799-0.535c0.466-2.055,0.988-4.361,1.487-6.565
			c-4.861-3.897-4.105,3.361-14.835,10.087c0.611-4.368,1.034-7.381,1.576-11.26c-10.837,1.533-2.929,2.383-14.338,8.625
			c-3.227-2.736,1.686-5.905-1.726-8.433c-6.966,7.431-11.738,17.01-20.773,24.42c-2.411-27.432,64.894-29.326-113.839-29.326
			c-4.498,2.796-5.116,8.532-10.272,8.632c-2.927-2.452,1.901-5.417-0.652-7.879c-3.98,0.927-3.826,7.213-9.041,7.083
			c-1.207-9.773-0.491-7.301-6.646,0.317c-0.463,0.574-1.852,0.362-3.702,0.647c0.373-3.176,0.684-5.815,0.991-8.433
			c-4.182-0.667-0.756-1.604-7.126,5.505c-1.431,1.598-5.186,1.826-4.033-2.299c1.224-4.379-2.151-4.289-2.528-4.071
			c-5.297,3.059-10.496,21.585-16.628,23.92c-0.645,0.244-1.296,0.369-1.963,0.218c0.278-3.025,1.562-5.662,2.819-8.295
			c0.57-1.193,1.131-2.387,1.596-3.614c4.444-11.731,7.143-13.024,0.202-13.341c-0.712-0.032-1.555-0.055-2.48-0.077
			c-0.303-0.007-0.578-0.014-0.904-0.022c-0.51-0.013-1.06-0.015-1.583-0.023l-3.293,31.057l-2.391,22.541l-0.962,9.068h33.1
			c0.4-0.674,0.754-1.26,1.191-2.007c0.19-0.324,0.483-0.88,0.843-1.509c0.669-1.171,1.602-2.601,2.709-3.516
			c0.918-0.759,1.946-1.161,3.042-0.67c0.375,0.167,0.634,0.408,0.857,0.67c0.718,0.841,0.715,2.11,0.37,3.516
			C553.645,344.04,553.167,345.257,552.641,346.408z"/>
		<path class="st0" d="M397.186,37.819h-2.142C395.906,38.339,396.509,38.345,397.186,37.819z"/>
		<path class="st0" d="M456.724,38.406c12.567-0.244,23.583-0.432,33.365-0.587h-56.169
			C436.203,39.121,442.961,38.674,456.724,38.406z"/>
		<path class="st0" d="M409.418,37.819h-1.875C408.031,38.171,408.616,38.241,409.418,37.819z"/>
		<path class="st0" d="M220.998,140.229c1.869,0.067,3.737,0.131,5.599,0.289c1.988-2.774,3.608-5.036,4.973-6.942
			c4.978-0.407,3.444,4.331,6.197,6.446c7.814-6.239,5.085-6.401,12.008-0.539c5.95-4.125,3.684-3.953,10.308-0.149
			c6.56-4.404,3.988-4.369,11.731,0.594c5.09-9.783,7.42-14.897,10.881-19.028c1.392-1.662,4.893,0.157,4.359,2.132
			c-3.875,14.322-11.335,18.639,0.018,18.684c134.432,0.536,111.819,9.077,124.335-2.418c7.135,7.653,4.332,7.083,12.506,1.226
			c5.203,4.635,6.229,6.112,7.829,4.811c8.015-6.521,8.461-0.952,10.473,0.174c0.448,0.252,0.996,0.233,1.701-0.139
			c0.734-0.386,1.639-1.161,2.874-2.628c4.171-4.954,4.441-3.863,9.875,1.186c9.896-5.896,11.402-22.271,18.952-21.616
			c1.434,0.124,2.243,2.912,1.292,4.6c-6.8,12.054-11.481,16.755-8.498,18.459c2.282,1.303,9.04,0.856,22.808,0.589
			c12.606-0.246,23.652-0.433,33.456-0.589c76.133-1.206,73.441-0.287,78.313-6.291c3.26-4.018,5.66-0.33,10.02,3.23
			c8.991-7.073,6.016-7.406,13.199-0.038c10.054-6.557,6.851-6.361,14.517-0.033c2.354-2.307,4.583-4.493,6.438-6.312
			c9.44-1.3,1.371,17.289,16.547-8.615c0.837-1.428,3.465-7.095,6.593-5.696c3.464,1.55-0.036,7.5-1.379,10.521
			c-3.019,6.791-6.104,9.995,4.025,9.34c6.982-0.451,13.33-0.962,18.949-1.415v6.894c-6.703,0.341-15.085,0.682-25.638,1.042
			c-13.958,0.474-9.203,9.779-22.583,14.042c2.361-4.895,4.008-8.308,5.562-11.528c-2.615-3.503-3.918,1.085-9.918,6.111
			c-0.902,0.755-2.46,0.689-4.573,1.203c0.89-3.239,1.514-5.505,2.109-7.673c-4.969-4.145-6.056,6.934-13.975,8.921
			c0-3.305,0-6.008,0-8.764c-6.777-1.485-8.118,6.147-12.932,6.812c-3.997-0.898-0.15-4.738-2.418-6.214
			c-0.682,0.061-1.673-0.154-2.002,0.228c-24.298,28.33-16.958,21.748-25.382,26.097c8.299-30.472,41.598-27.74-42.676-25.79
			c-0.827,0.019-1.645,0.038-2.495,0.057c-17.988,0.401-41.102,0.754-70.638,0.754c-0.087,0.044-0.15,0.106-0.235,0.151h68.286
			l-2.664,25.12l-8.484,80.002l-2.107,19.868c0.83,0.006,1.661,0,2.49,0.016c0.827,0.016,1.651,0.07,2.478,0.099
			c1.868,0.067,3.736,0.129,5.598,0.289c1.987-2.775,3.608-5.037,4.973-6.942c4.978-0.407,3.444,4.33,6.197,6.446
			c7.814-6.239,5.085-6.401,12.008-0.539c5.95-4.125,3.684-3.953,10.307-0.151c6.56-4.402,3.988-4.369,11.731,0.594
			c5.091-9.783,7.421-14.896,10.88-19.028c1.392-1.662,4.894,0.157,4.359,2.133c-3.875,14.32-11.334,18.637,0.018,18.682
			c134.432,0.538,111.819,9.078,124.335-2.418c7.135,7.654,4.331,7.085,12.505,1.226c5.203,4.636,6.23,6.112,7.829,4.811
			c8.016-6.521,8.461-0.952,10.474,0.176c0.615,0.344,1.4,0.219,2.568-0.735c0.57-0.466,1.212-1.09,2.007-2.034
			c0.296-0.352,0.534-0.605,0.793-0.895l2.291-21.597l16.231-153.039l-88.655-66.665h-23.151v1.584
			c-6.702,0.34-15.084,0.683-25.637,1.041c-2.268,0.078-4.006,0.407-5.444,0.891c-2.366,0.796-3.853,2.047-5.104,3.517
			c-2.668,3.137-4.405,7.204-12.035,9.635c1.909-3.957,3.345-6.934,4.648-9.635c0.309-0.639,0.616-1.277,0.913-1.893
			c-1.819-2.437-3.036-0.926-5.609,1.893c-1.126,1.232-2.484,2.69-4.309,4.218c-0.902,0.755-2.46,0.687-4.572,1.201
			c0.593-2.156,1.063-3.866,1.49-5.42c0.214-0.777,0.421-1.529,0.619-2.252c-2.513-2.097-4.035-0.295-5.949,2.252
			c-1.87,2.488-4.113,5.687-8.026,6.669c0-2.476,0-4.593,0-6.669c0-0.695,0-1.403,0-2.095c-3.052-0.668-4.985,0.535-6.646,2.095
			c-2.026,1.903-3.641,4.352-6.287,4.716c-2.981-0.67-1.602-2.976-1.647-4.716c-0.016-0.593-0.194-1.122-0.771-1.498
			c-0.681,0.061-1.673-0.154-2.001,0.228c-0.392,0.458-0.708,0.831-1.084,1.27c-22.913,26.775-16.01,20.548-24.298,24.827
			c4.047-14.858,14.034-21.818,13.447-24.827c-0.879-4.504-25.467-0.152-129.255-0.152c-0.089,0.043-0.152,0.106-0.238,0.152
			c-5.121,2.75-5.811,8.962-11.967,9.072c0.218-2.893,0.395-5.228,0.567-7.506c-1.075-0.064-2.042-0.4-2.309-0.093
			c-4.12,4.728-6.649,10.456-10.637,6.774c0.466-2.056,0.987-4.36,1.487-6.564c-4.861-3.897-4.105,3.361-14.835,10.087
			c0.612-4.368,1.033-7.381,1.576-11.262c-10.837,1.534-2.929,2.383-14.338,8.625c-3.226-2.736,1.687-5.905-1.726-8.431
			c-6.966,7.43-11.739,17.01-20.774,24.419c-1.224-13.919,15.489-21.261,8.91-25.119c-3.213-1.883-11.995-2.938-31.13-3.517
			c-4.813-0.147-10.284-0.263-16.484-0.355l-45.115,28.991l-52.97,34.04l-1.722,16.237l-2.107,19.866
			c0.829,0.006,1.66,0,2.488,0.017C219.347,140.148,220.172,140.2,220.998,140.229z"/>
		<path class="st0" d="M286.507,362.148c0.886-0.164,1.547-0.432,2.148-0.824c0.112-0.072,0.221-0.158,0.33-0.239
			c0.573-0.432,1.131-0.991,1.806-1.697c0.751-0.786,1.658-1.748,2.943-2.934c0.023-0.02,0.042-0.039,0.065-0.061
			c0,0,0.003-0.003,0.005-0.005c0.002,0.002,0.004,0.005,0.006,0.006c0.029,0.032,0.052,0.058,0.081,0.089
			c1.736,1.868,2.881,3.242,3.735,4.157c0.032,0.035,0.058,0.058,0.09,0.092l-6.386-1.171l-0.162,1.524l-0.199,1.881l-0.445,4.198
			c0.824-1.414,1.625-2.675,2.467-3.827c0.405-0.553,0.819-1.085,1.251-1.601c1.392-1.662,4.893,0.155,4.359,2.132
			c-0.044,0.164-0.095,0.309-0.14,0.472c-0.007,0.025-0.014,0.046-0.021,0.071c-0.882,3.127-1.918,5.762-2.879,7.971
			c-3.302,7.586-5.619,10.135,3.058,10.169c92.468,0.369,110.633,4.524,117.038,3.342c0.064-0.012,0.116-0.029,0.178-0.042
			c1.79-0.375,2.666-1.211,4.107-2.719c0.616-0.643,1.349-1.412,2.298-2.322c0.229-0.219,0.452-0.436,0.71-0.672l-0.626-0.115
			l1.228-11.579c-0.817,0.02-1.653,0.039-2.493,0.058c-0.824,0.02-1.649,0.039-2.496,0.058c-14.484,0.329-32.377,0.629-54.347,0.738
			c-0.134,0-0.264,0-0.398,0.001c-5.447,0.026-11.121,0.042-17.08,0.042c-0.134,0.067-0.233,0.16-0.361,0.233
			c-0.032,0.017-0.06,0.039-0.091,0.058l-44.957-8.24c0.025-0.017,0.056-0.04,0.082-0.06c0.11-0.077,0.224-0.16,0.344-0.248
			c0.801-0.598,1.842-1.453,3.31-2.553c0.025-0.02,0.055-0.041,0.081-0.061c0.367-0.273,0.743-0.553,1.166-0.857
			c0.55,0.491,1.029,0.925,1.491,1.345c0.032,0.029,0.072,0.064,0.104,0.093c0.901,0.819,1.629,1.481,2.257,2.033
			c2.041,1.793,2.893,2.223,3.978,1.34c0.655-0.533,1.243-0.961,1.802-1.34c0.244-0.167,0.463-0.294,0.69-0.433
			c0.034-0.02,0.064-0.036,0.098-0.057c3.863-2.334,5.332-0.934,6.449,0.49c0.225,0.286,0.441,0.559,0.658,0.812
			c0.025,0.03,0.051,0.061,0.077,0.09c0.622,0.698,1.318,1.065,2.446,0.448c0.034-0.019,0.067-0.035,0.102-0.055
			c0.451-0.264,0.965-0.671,1.58-1.295c0.354-0.359,0.725-0.754,1.146-1.254c4.171-4.954,4.441-3.862,9.876,1.187
			c9.896-5.896,11.402-22.271,18.952-21.617c1.435,0.124,2.244,2.913,1.292,4.6c-5.489,9.729-9.556,14.643-9.372,17.084
			c0.219,2.896,6.443,2.299,23.682,1.964c18.125-0.353,33.111-0.591,45.612-0.775c0.847-0.013,1.669-0.026,2.493-0.037
			c0.824-0.012,1.691-0.025,2.492-0.037l0.119-1.116l2.518-23.745l16.949-159.818l1.891-17.828c-0.895,0.984-1.78,1.685-2.696,1.951
			c-0.77,0.224-1.578,0.089-2.441-0.462c-0.264-0.169-0.521-0.277-0.798-0.535c0.466-2.055,0.988-4.359,1.487-6.563
			c-4.862-3.897-4.105,3.361-14.835,10.087c0.611-4.368,1.033-7.381,1.576-11.262c-10.836,1.534-2.929,2.383-14.339,8.625
			c-3.225-2.736,1.687-5.905-1.725-8.432c-6.967,7.429-11.739,17.01-20.775,24.419c-2.411-27.432,64.894-29.325-113.838-29.325
			c-4.498,2.795-5.117,8.533-10.272,8.633c-2.927-2.453,1.901-5.417-0.651-7.879c-3.98,0.925-3.826,7.213-9.041,7.083
			c-1.207-9.773-0.49-7.303-6.645,0.315c-0.463,0.574-1.852,0.364-3.702,0.647c0.373-3.175,0.683-5.815,0.991-8.433
			c-4.183-0.665-0.756-1.604-7.125,5.507c-1.432,1.599-5.186,1.825-4.034-2.299c1.224-4.379-2.151-4.289-2.528-4.071
			c-5.297,3.059-10.496,21.587-16.629,23.919c-0.645,0.246-1.295,0.369-1.962,0.219c0.279-3.024,1.561-5.659,2.818-8.292
			c0.57-1.194,1.132-2.389,1.597-3.617c4.446-11.733,7.144-13.024,0.202-13.341c-0.713-0.033-1.556-0.055-2.481-0.077
			c-0.302-0.009-0.577-0.015-0.902-0.023c-0.511-0.012-1.06-0.015-1.582-0.023l-3.293,31.057L195.119,337.34l-0.839,7.906
			l86.421,15.839L286.507,362.148z"/>
		<path class="st0" d="M443.29,386.168c0.983-0.801,1.817-1.361,2.589-1.829l-8.927-1.636
			C440.863,386.255,441.859,387.332,443.29,386.168z"/>
		<path class="st0" d="M455.61,386.123l-2.623-0.481C453.649,386.415,454.373,386.85,455.61,386.123z"/>
		<path class="st0" d="M426.776,384.384c1.572,1.684,2.19,1.815,3.782,0.693c0.857-0.603,2.003-1.568,3.733-2.861l-11.331-2.076
			C424.746,382.055,425.909,383.454,426.776,384.384z"/>
		<path class="st0" d="M594.139,499.622c0.57-0.466,1.212-1.09,2.007-2.034c0.296-0.351,0.534-0.604,0.794-0.897
			c3.403-3.816,4.032-2.607,9.082,2.082c5.044-3.005,7.907-8.726,10.503-13.535c0.682-1.261,1.348-2.448,2.027-3.517
			c0.941-1.482,1.919-2.705,3.014-3.515h-27.645l-2.349,22.151C592.187,500.702,592.973,500.577,594.139,499.622z"/>
		<path class="st0" d="M821.042,478.207c0.213,0.992-0.028,2.229-0.464,3.515c-0.409,1.203-0.958,2.422-1.48,3.517
			c-0.303,0.635-0.593,1.238-0.817,1.744c-2.586,5.818-5.193,8.992,0.469,9.375c0.696,0.048,1.526,0.051,2.488,0.013
			c0.349-0.013,0.681-0.022,1.068-0.048c0.491-0.032,0.954-0.065,1.438-0.097l1.911-18.018H821.042z"/>
		<path class="st0" d="M640.576,500.805c110.492-2.147,106.27-0.103,111.768-6.879c3.26-4.018,5.66-0.33,10.02,3.23
			c8.991-7.071,6.016-7.406,13.198-0.037c10.054-6.558,6.852-6.36,14.518-0.034c2.354-2.307,4.582-4.493,6.438-6.311
			c9.022-1.244,2.104,15.579,14.718-5.533c0.584-0.978,1.157-1.935,1.829-3.08c0.064-0.11,0.157-0.283,0.242-0.437
			c0.473-0.863,1.241-2.303,2.235-3.515H626.176c0.533,0.985,0.689,2.435,0.099,3.515c-0.005,0.01-0.004,0.025-0.01,0.036
			c-0.701,1.242-1.374,2.39-2.024,3.481C613.758,502.832,610.665,501.386,640.576,500.805z"/>
		<path class="st0" d="M818.071,502.757c-0.833,0.029-1.593,0.058-2.455,0.087c-13.958,0.473-9.203,9.779-22.583,14.042
			c2.361-4.895,4.008-8.308,5.562-11.528c-2.616-3.503-3.918,1.086-9.919,6.111c-0.902,0.756-2.46,0.689-4.572,1.203
			c0.889-3.239,1.513-5.505,2.109-7.673c-4.969-4.145-6.056,6.934-13.975,8.922c0-3.307,0-6.009,0-8.766
			c-6.777-1.485-8.117,6.148-12.933,6.812c-3.997-0.898-0.149-4.738-2.417-6.214c-0.682,0.061-1.673-0.154-2.001,0.228
			c-24.298,28.33-16.959,21.748-25.383,26.097c10.104-37.1,57.316-24.979-115.809-24.979c-5.362,2.676-5.946,9.113-12.204,9.226
			c0.218-2.894,0.394-5.229,0.566-7.506c-1.074-0.065-2.041-0.401-2.308-0.095c-1.784,2.047-3.266,4.24-4.701,5.816
			c-0.896,0.985-1.781,1.685-2.697,1.953c-0.77,0.224-1.577,0.089-2.44-0.461l-1.732,16.337l-17.022,160.503h-85.927l17.019-160.503
			l3.068-28.935c-0.82-0.015-1.635-0.027-2.483-0.042c-0.81-0.012-1.651-0.023-2.486-0.035c-17.991-0.252-41.941-0.312-73.684-0.312
			c-4.498,2.794-5.116,8.532-10.272,8.632c-2.927-2.453,1.9-5.417-0.652-7.88c-3.98,0.926-3.826,7.213-9.041,7.084
			c-1.207-9.773-0.491-7.303-6.646,0.316c-0.463,0.573-1.852,0.362-3.702,0.647c0.373-3.176,0.683-5.816,0.991-8.434
			c-4.182-0.665-0.756-1.604-7.125,5.507c-1.432,1.598-5.186,1.825-4.033-2.299c1.224-4.379-2.151-4.289-2.528-4.071
			c-5.853,3.38-11.583,25.721-18.591,24.138c0.405-4.395,2.926-7.977,4.415-11.908c5.051-13.331,7.861-13.184-3.182-13.442
			c-6.114-0.142-13.118-0.03-20.145-0.354v-6.136c9.946,0.384,19.915-0.321,29.801,0.522c1.987-2.774,3.609-5.036,4.973-6.942
			c4.978-0.407,3.444,4.331,6.197,6.446c7.814-6.238,5.085-6.401,12.008-0.538c5.95-4.125,3.684-3.955,10.308-0.151
			c6.56-4.404,3.988-4.369,11.731,0.594c5.091-9.783,7.421-14.897,10.88-19.028c1.393-1.662,4.894,0.157,4.359,2.132
			c-3.875,14.322-11.334,18.638,0.018,18.684c27.601,0.11,48.497,0.559,64.522,1.101c0.821,0.027,1.685,0.055,2.481,0.082
			c0.852,0.031,1.655,0.061,2.478,0.093l2.411-22.743l6.016-56.739l2.234-21.061l-14.644-2.684l-8.572-1.571
			c-5.567,0.026-11.366,0.044-17.47,0.044c-0.135,0.067-0.233,0.159-0.363,0.232c-0.681,0.379-1.288,0.814-1.835,1.295
			c-0.582,0.51-1.11,1.053-1.596,1.623c-2.409,2.819-4.026,5.995-8.411,6.075c0.218-2.893,0.394-5.228,0.567-7.506
			c-0.596-0.035-1.144-0.145-1.573-0.192h-0.478c-0.104,0.016-0.204,0.038-0.258,0.099c-4.121,4.727-6.649,10.454-10.637,6.772
			c0.465-2.055,0.988-4.361,1.487-6.565c-0.155-0.123-0.29-0.205-0.434-0.306c-1.542-1.091-2.509-0.956-3.55,0
			c-1.912,1.755-4.124,6.178-10.85,10.394c0.564-4.027,0.97-6.929,1.455-10.394c0.041-0.294,0.079-0.565,0.121-0.867
			c-2.118,0.299-3.507,0.574-4.477,0.867c-3.992,1.204-0.682,2.736-9.861,7.757c-2.947-2.499,0.827-5.355-1.089-7.757
			c-0.181-0.228-0.341-0.456-0.636-0.674c-0.204,0.217-0.391,0.452-0.591,0.674c-6.643,7.33-11.412,16.552-20.184,23.744
			c-1.091-12.416,12.097-19.599,10.293-23.744c-2.168-4.981-26.018-5.572-122.291-5.581c-0.62,0-1.213,0-1.84,0
			c-0.261,0.163-0.469,0.364-0.705,0.543c-1.122,0.854-2.014,1.869-2.798,2.916l-0.224,2.122l-2.518,23.744l-31.027,292.555
			l-2.679,25.26c0.615,0.344,1.4,0.219,2.566-0.735c0.57-0.466,1.212-1.09,2.007-2.033c0.295-0.351,0.533-0.603,0.792-0.895
			c3.405-3.818,4.033-2.611,9.083,2.081c9.896-5.896,11.402-22.272,18.952-21.617c1.434,0.123,2.243,2.913,1.292,4.6
			c-12.003,21.274-17.455,19.664,14.31,19.049c110.493-2.148,106.271-0.105,111.769-6.882c3.259-4.016,5.66-0.328,10.02,3.231
			c8.991-7.073,6.016-7.407,13.199-0.039c10.054-6.557,6.851-6.359,14.517-0.033c2.354-2.307,4.582-4.493,6.438-6.312
			c9.44-1.3,1.371,17.289,16.547-8.613c0.837-1.428,3.465-7.096,6.593-5.696c3.463,1.549-0.036,7.5-1.379,10.519
			c-3.019,6.791-6.104,9.995,4.025,9.34c6.981-0.451,13.33-0.962,18.949-1.415v6.896c-6.702,0.34-15.085,0.682-25.638,1.041
			c-13.958,0.473-9.203,9.779-22.583,14.043c2.361-4.895,4.008-8.31,5.562-11.53c-2.615-3.502-3.918,1.086-9.918,6.113
			c-0.902,0.755-2.46,0.687-4.573,1.201c0.89-3.237,1.514-5.504,2.11-7.671c-4.969-4.145-6.056,6.932-13.975,8.921
			c0-3.305,0-6.01,0-8.764c-6.777-1.487-8.118,6.146-12.932,6.811c-3.998-0.898-0.15-4.74-2.418-6.214
			c-0.682,0.06-1.674-0.156-2.002,0.228c-24.298,28.33-16.958,21.746-25.382,26.095c10.104-37.1,57.316-24.979-115.809-24.979
			c-2.034,1.016-3.379,2.57-4.609,4.117c-0.68,0.856-1.336,1.69-2.04,2.447c-0.767,0.824-1.638,1.501-2.672,1.977l22.488,16.732
			l53.197,39.582l0.535,0.395h145.948h194.292c0.007-1.225,0.148-2.397,0.396-3.517c0.274-1.234,0.675-2.404,1.162-3.515
			c8.434-19.263,42.573-20.745-115.341-20.745c-4.498,2.795-5.116,8.532-10.271,8.633c-2.927-2.454,1.9-5.417-0.652-7.881
			c-3.98,0.927-3.826,7.213-9.041,7.083c-1.206-9.773-0.491-7.301-6.645,0.317c-0.464,0.574-1.852,0.362-3.703,0.647
			c0.373-3.175,0.683-5.815,0.992-8.433c-4.183-0.667-0.757-1.604-7.126,5.507c-1.432,1.597-5.186,1.825-4.034-2.299
			c1.224-4.379-2.15-4.291-2.528-4.072c-4.329,2.5-8.591,15.349-13.351,21.244c-1.677,2.076-3.415,3.307-5.24,2.894
			c0.092-1.006,0.32-1.96,0.596-2.894c0.931-3.148,2.67-5.982,3.818-9.013c5.051-13.331,7.861-13.184-3.182-13.442
			c-6.114-0.142-13.119-0.03-20.145-0.354v-6.137c9.946,0.385,19.915-0.32,29.801,0.523c1.987-2.775,3.609-5.037,4.973-6.942
			c4.979-0.407,3.445,4.33,6.197,6.446c7.814-6.239,5.085-6.401,12.008-0.539c5.949-4.125,3.684-3.953,10.307-0.151
			c6.56-4.402,3.988-4.369,11.731,0.594c5.091-9.783,7.421-14.896,10.881-19.026c1.393-1.662,4.894,0.155,4.359,2.132
			c-3.876,14.32-11.334,18.637,0.018,18.684c134.432,0.536,111.818,9.076,124.335-2.418c7.134,7.653,4.331,7.083,12.505,1.225
			c5.202,4.636,6.229,6.113,7.829,4.811c9.418-7.661,8.389,1.357,11.729,0.26l1.468-0.953c0.536-0.459,1.127-1.039,1.851-1.899
			c2.545-3.024,3.644-3.772,5.344-2.768c0.715,0.423,1.54,1.148,2.622,2.162c0.562,0.528,1.185,1.119,1.91,1.791
			c3.081-1.835,5.347-4.687,7.237-7.724c1.262-2.027,2.354-4.126,3.41-6.072c2.44-4.503,4.675-8.135,8.306-7.821
			c0.652,0.057,1.147,0.697,1.433,1.504c0.343,0.965,0.376,2.178-0.142,3.096c-0.277,0.493-0.531,0.911-0.8,1.378
			c-1.391,2.407-2.672,4.516-3.806,6.33l22.157-14.368l16.15-10.475l22.227-209.593l3.159-29.79
			c-0.791,0.029-1.681,0.06-2.501,0.089C819.751,502.697,818.92,502.728,818.071,502.757z"/>
		<path class="st0" d="M713.481,796.36c0.207-1.472,0.388-2.768,0.563-4.017c0.204-1.456,0.398-2.842,0.594-4.246
			c0.135-0.966,0.273-1.95,0.42-2.999c-10.837,1.534-2.929,2.383-14.339,8.625c-3.226-2.736,1.687-5.905-1.726-8.431
			c-4.477,4.774-8.061,10.434-12.441,15.839c-0.965,1.191-1.984,2.361-3.047,3.515c-1.111,1.207-2.303,2.379-3.562,3.517h15.663
			l32.529-21.097c0.06-0.263,0.12-0.53,0.179-0.793C723.455,782.377,724.211,789.634,713.481,796.36z"/>
		<path class="st0" d="M257.078,744.54c-0.621,0.712-1.199,1.442-1.758,2.164l3.701,2.753c0.1-1.316,0.194-2.573,0.284-3.753
			c0.026-0.35,0.054-0.725,0.08-1.071c-0.71-0.042-1.351-0.189-1.796-0.206C257.361,744.418,257.169,744.435,257.078,744.54z"/>
	</g>
	<g>
		<path class="st0" d="M102.52,377.02c-1.489,3.93-4.01,7.514-4.415,11.907c7.008,1.584,12.738-20.757,18.591-24.138
			c0.377-0.218,3.753-0.308,2.528,4.073c-1.153,4.124,2.602,3.896,4.033,2.299c6.369-7.111,2.943-6.174,7.125-5.507
			c-0.308,2.618-0.618,5.258-0.991,8.433c1.85-0.284,3.239-0.072,3.702-0.646c6.156-7.618,5.439-10.09,6.646-0.317
			c5.215,0.13,5.061-6.156,9.041-7.083c2.552,2.463-2.275,5.427,0.652,7.881c5.155-0.102,5.773-5.838,10.272-8.634
			c18.831,0,34.902,0.022,48.64,0.092c83.994,0.426,79.729,2.672,71.546,13.056c-3.611-2.479-2.969-1.818-8.259,1.732
			c-6.623-3.802-4.358-3.974-10.307,0.151c-6.924-5.861-4.194-5.7-12.008,0.539c-2.753-2.116-1.219-6.852-6.197-6.446
			c-1.365,1.905-2.986,4.167-4.973,6.942c-9.886-0.843-19.855-0.138-29.801-0.523v6.137c7.027,0.324,14.031,0.212,20.145,0.354
			c8.978,0.209,8.797,0.151,5.702,7.29c-0.712,1.64-1.577,3.66-2.521,6.152c-1.489,3.93-4.01,7.513-4.414,11.907
			c5.111,1.155,9.542-10.4,13.837-18.059c1.594-2.842,3.169-5.164,4.753-6.079c0.378-0.218,3.752-0.307,2.528,4.072
			c-0.241,0.863-0.231,1.497-0.109,2.007c0.463,1.924,3.011,1.554,4.143,0.292c0.101-0.113,0.152-0.183,0.248-0.292
			c5.968-6.749,2.76-5.871,6.877-5.215c-0.196,1.665-0.399,3.398-0.613,5.215c-0.122,1.037-0.243,2.065-0.379,3.218
			c1.851-0.285,3.239-0.073,3.703-0.647c0.76-0.941,1.413-1.802,1.98-2.572c3.607-4.901,3.658-5.976,4.389,0
			c0.085,0.69,0.167,1.367,0.276,2.255c2.127,0.054,3.349-0.974,4.334-2.255c0.102-0.134,0.201-0.27,0.298-0.409
			c0.008,0.137,0.008,0.27,0.02,0.409c1.705-1.399,3.223-2.89,4.668-4.416c0.993,1.395,0.054,2.92-0.403,4.416
			c-0.322,1.055-0.37,2.092,0.775,3.053c2.448-0.048,3.868-1.38,5.171-3.053c0.526-0.676,1.051-1.392,1.597-2.122
			c0.784-1.047,1.676-2.062,2.798-2.916c0.237-0.18,0.445-0.381,0.705-0.543c0.627,0,1.22,0,1.84,0
			c96.274,0.009,120.124,0.6,122.291,5.581c1.804,4.145-11.385,11.329-10.293,23.744c8.771-7.192,13.54-16.414,20.184-23.744
			c0.2-0.222,0.386-0.458,0.591-0.674c0.295,0.218,0.456,0.446,0.636,0.674c1.916,2.402-1.858,5.258,1.089,7.757
			c9.179-5.021,5.869-6.553,9.861-7.757c0.97-0.294,2.359-0.568,4.477-0.867c-0.042,0.302-0.08,0.574-0.121,0.867
			c-0.485,3.465-0.891,6.367-1.455,10.394c6.726-4.217,8.938-8.639,10.85-10.394c1.041-0.956,2.008-1.091,3.55,0
			c0.144,0.102,0.279,0.183,0.434,0.306c-0.499,2.204-1.021,4.51-1.487,6.565c3.988,3.682,6.516-2.046,10.637-6.772
			c0.054-0.061,0.153-0.083,0.258-0.099c0.129-0.022,0.288-0.022,0.478,0c0.428,0.047,0.977,0.157,1.573,0.192
			c-0.172,2.279-0.349,4.613-0.567,7.506c4.386-0.08,6.002-3.256,8.411-6.075c0.486-0.569,1.014-1.113,1.596-1.623
			c0.547-0.481,1.154-0.915,1.835-1.295c0.13-0.073,0.228-0.166,0.363-0.232c6.103,0,11.903-0.017,17.47-0.044
			c38.035-0.189,63.82-0.952,80.939-1.437c51.448-1.46,24.714-0.397,17.4,26.46c8.423-4.35,1.083,2.233,25.382-26.097
			c0.329-0.383,1.32-0.167,2.002-0.228c2.267,1.477-1.58,5.317,2.417,6.214c4.815-0.664,6.156-8.298,12.932-6.812
			c0,2.757,0,5.459,0,8.765c7.92-1.989,9.006-13.066,13.975-8.921c-0.595,2.168-1.219,4.434-2.109,7.671
			c2.113-0.514,3.671-0.446,4.573-1.202c6-5.027,7.303-9.614,9.918-6.111c-1.553,3.218-3.2,6.633-5.561,11.528
			c13.38-4.263,8.625-13.568,22.583-14.043c10.553-0.359,18.935-0.7,25.638-1.04v-6.896c-5.619,0.453-11.967,0.965-18.949,1.417
			c-10.129,0.655-7.044-2.548-4.025-9.34c1.343-3.021,4.842-8.971,1.379-10.521c-3.128-1.401-5.756,4.267-6.593,5.696
			c-15.176,25.902-7.107,7.313-16.548,8.615c-1.856,1.819-4.084,4.003-6.438,6.311c-7.666-6.328-4.463-6.525-14.517,0.032
			c-7.182-7.368-4.208-7.034-13.199,0.039c-4.36-3.56-6.76-7.247-10.02-3.23c-3.858,4.754-2.987,5.167-40.24,5.73
			c-15.849,0.242-38.551,0.509-71.529,1.149c-31.611,0.615-26.359,2.193-14.479-18.758c0.45-0.103,1.132,0.006,1.641-0.039
			c2.268,1.476-1.58,5.317,2.418,6.214c4.815-0.664,6.155-8.298,12.933-6.813c0,2.757,0,5.46,0,8.766
			c7.919-1.989,9.006-13.067,13.975-8.922c-0.596,2.167-1.219,4.435-2.109,7.672c2.112-0.514,3.671-0.446,4.573-1.202
			c6-5.027,7.302-9.614,9.918-6.111c-1.554,3.218-3.201,6.631-5.562,11.528c13.38-4.263,8.625-13.568,22.583-14.043
			c10.554-0.359,18.936-0.7,25.638-1.04v-2.961v-3.935c-5.619,0.453-11.967,0.964-18.949,1.417
			c-10.128,0.654-7.044-2.55-4.025-9.341c0.349-0.783,0.84-1.767,1.32-2.817c0.526-1.151,1.004-2.368,1.286-3.516
			c0.346-1.407,0.348-2.675-0.37-3.516c-0.223-0.262-0.482-0.503-0.857-0.67c-1.096-0.491-2.124-0.089-3.042,0.67
			c-1.107,0.915-2.04,2.345-2.709,3.516c-0.36,0.629-0.653,1.186-0.843,1.509c-0.437,0.747-0.791,1.333-1.191,2.007
			c-13.47,22.717-6.188,5.344-15.355,6.608c-1.856,1.819-4.085,4.003-6.438,6.312c-7.667-6.328-4.464-6.525-14.518,0.032
			c-7.183-7.368-4.207-7.034-13.198,0.038c-4.36-3.559-6.761-7.246-10.02-3.229c-2.401,2.96-2.951,4.237-12.016,4.916
			c-7.821,0.585-21.991,0.725-49.156,1.116c-0.801,0.012-1.668,0.025-2.492,0.037c-0.824,0.012-1.645,0.025-2.493,0.037
			c-12.501,0.183-27.487,0.421-45.612,0.775c-17.238,0.334-23.463,0.932-23.682-1.964c-0.184-2.441,3.883-7.355,9.372-17.084
			c0.952-1.687,0.143-4.476-1.292-4.6c-7.55-0.654-9.056,15.721-18.952,21.617c-5.435-5.049-5.705-6.142-9.876-1.187
			c-0.421,0.5-0.792,0.895-1.146,1.254c-0.615,0.623-1.13,1.03-1.58,1.295c-0.035,0.02-0.068,0.036-0.102,0.055
			c-1.128,0.618-1.824,0.25-2.446-0.448c-0.026-0.029-0.052-0.06-0.077-0.09c-0.217-0.253-0.433-0.526-0.658-0.812
			c-1.117-1.424-2.587-2.823-6.449-0.49c-0.034,0.02-0.064,0.036-0.098,0.057c-0.227,0.139-0.446,0.266-0.69,0.433
			c-0.559,0.379-1.148,0.806-1.802,1.34c-1.085,0.883-1.937,0.453-3.978-1.34c-0.628-0.552-1.356-1.213-2.257-2.033
			c-0.032-0.029-0.072-0.064-0.104-0.093c-0.462-0.42-0.941-0.854-1.491-1.345c-0.423,0.304-0.799,0.584-1.166,0.857
			c-0.026,0.02-0.056,0.041-0.081,0.061c-1.468,1.1-2.509,1.955-3.31,2.553c-0.12,0.088-0.234,0.171-0.344,0.248
			c-0.027,0.019-0.057,0.042-0.082,0.06l44.957,8.24c0.031-0.019,0.059-0.041,0.091-0.058c0.129-0.073,0.227-0.166,0.361-0.233
			c5.96,0,11.633-0.016,17.08-0.042c0.134-0.001,0.264-0.001,0.398-0.001c21.97-0.109,39.863-0.41,54.347-0.738
			c0.847-0.019,1.671-0.038,2.496-0.058c0.841-0.019,1.676-0.038,2.493-0.058c68.579-1.668,54.021-3.532,43.434,15.165
			c-4.235-3.994-4.83-4.568-8.648-0.032c-1.153,1.37-2.017,2.132-2.727,2.547c-1.237,0.726-1.96,0.292-2.623-0.481
			c-1.293-1.51-2.466-4.107-7.108-1.303c-0.772,0.468-1.606,1.029-2.589,1.829c-1.431,1.164-2.427,0.087-6.337-3.465
			c-0.462-0.418-0.942-0.854-1.492-1.345c-0.423,0.304-0.8,0.584-1.168,0.859c-1.73,1.293-2.877,2.258-3.733,2.861
			c-1.592,1.121-2.211,0.991-3.782-0.693c-0.868-0.93-2.03-2.329-3.816-4.244c-0.002-0.003-0.004-0.006-0.006-0.008
			c0,0-0.004,0.003-0.006,0.005c-0.258,0.237-0.48,0.453-0.71,0.672c-0.949,0.91-1.682,1.679-2.298,2.322
			c-1.441,1.508-2.317,2.344-4.107,2.719c-0.062,0.013-0.114,0.03-0.178,0.042c-6.405,1.183-24.57-2.973-117.038-3.342
			c-8.677-0.035-6.36-2.583-3.058-10.169c0.961-2.209,1.997-4.844,2.879-7.971c0.007-0.025,0.014-0.047,0.021-0.071
			c0.045-0.163,0.096-0.308,0.14-0.472c0.534-1.976-2.966-3.794-4.359-2.132c-0.433,0.516-0.847,1.048-1.251,1.601
			c-0.842,1.152-1.644,2.414-2.467,3.827l0.445-4.198l0.199-1.881l0.162-1.524l6.386,1.171c-0.032-0.034-0.057-0.057-0.09-0.092
			c-0.854-0.915-1.999-2.289-3.735-4.157c-0.03-0.03-0.052-0.057-0.081-0.089c-0.002-0.001-0.004-0.004-0.006-0.006
			c-0.002,0.002-0.003,0.003-0.003,0.003c-0.025,0.023-0.044,0.042-0.067,0.062c-1.285,1.186-2.192,2.147-2.943,2.934
			c-0.675,0.706-1.233,1.265-1.806,1.697c-0.11,0.081-0.218,0.167-0.33,0.239c-0.601,0.392-1.263,0.66-2.148,0.824
			c-3.173,0.585-9.255-0.138-25.802-1.064c-16.857-0.943-44.573-2.092-91.236-2.28c-11.353-0.045-3.893-4.362-0.018-18.683
			c0.535-1.976-2.966-3.795-4.359-2.131c-3.46,4.131-5.789,9.244-10.88,19.026c-7.743-4.963-5.171-4.997-11.731-0.594
			c-6.623-3.803-4.357-3.974-10.308,0.151c-6.923-5.861-4.194-5.7-12.008,0.539c-2.753-2.115-1.219-6.852-6.197-6.445
			c-1.365,1.905-2.985,4.167-4.972,6.942c-9.886-0.843-19.855-0.138-29.801-0.523v6.137c7.026,0.324,14.031,0.212,20.145,0.355
			C110.381,363.836,107.571,363.689,102.52,377.02z"/>
		<path class="st0" d="M185.628,52.378c-1.489,3.932-4.01,7.513-4.415,11.908c7.007,1.582,12.737-20.759,18.591-24.14
			c0.377-0.218,3.752-0.306,2.528,4.072c-1.152,4.125,2.602,3.895,4.034,2.299c6.369-7.111,2.942-6.174,7.125-5.507
			c-0.308,2.618-0.618,5.258-0.991,8.434c1.85-0.285,3.239-0.074,3.703-0.648c6.155-7.618,5.439-10.09,6.645-0.315
			c5.216,0.13,5.061-6.158,9.041-7.083c2.552,2.463-2.276,5.425,0.652,7.879c5.155-0.1,5.773-5.838,10.271-8.632
			c32.603,0,56.988,0.064,75.134,0.333c6.2,0.092,11.672,0.208,16.484,0.355c19.135,0.58,27.917,1.634,31.13,3.517
			c6.579,3.858-10.134,11.2-8.91,25.119c9.035-7.409,13.808-16.988,20.774-24.419c3.412,2.527-1.501,5.696,1.726,8.431
			c11.41-6.242,3.502-7.09,14.338-8.625c-0.543,3.881-0.964,6.894-1.576,11.262c10.73-6.726,9.974-13.984,14.835-10.087
			c-0.5,2.204-1.021,4.508-1.487,6.564c3.988,3.682,6.516-2.045,10.637-6.774c0.267-0.306,1.234,0.029,2.309,0.093
			c-0.172,2.278-0.349,4.613-0.567,7.506c6.156-0.11,6.846-6.322,11.967-9.072c0.086-0.046,0.149-0.109,0.238-0.152
			c103.789,0,128.377-4.352,129.255,0.152c0.587,3.009-9.4,9.969-13.447,24.827c8.288-4.279,1.385,1.948,24.298-24.827
			c0.376-0.439,0.692-0.812,1.084-1.27c0.329-0.382,1.32-0.167,2.001-0.228c0.577,0.376,0.755,0.905,0.771,1.498
			c0.045,1.741-1.334,4.047,1.647,4.716c2.646-0.364,4.261-2.813,6.287-4.716c1.661-1.56,3.594-2.763,6.646-2.095
			c0,0.692,0,1.4,0,2.095c0,2.076,0,4.193,0,6.669c3.913-0.982,6.156-4.182,8.026-6.669c1.914-2.547,3.436-4.349,5.949-2.252
			c-0.198,0.723-0.405,1.475-0.619,2.252c-0.427,1.553-0.897,3.263-1.49,5.42c2.112-0.514,3.67-0.446,4.572-1.201
			c1.826-1.529,3.184-2.986,4.309-4.218c2.573-2.819,3.79-4.33,5.609-1.893c-0.297,0.616-0.604,1.254-0.913,1.893
			c-1.303,2.701-2.739,5.678-4.648,9.635c7.63-2.431,9.367-6.498,12.035-9.635c1.251-1.47,2.739-2.721,5.104-3.517
			c1.437-0.484,3.176-0.812,5.444-0.891c10.553-0.358,18.935-0.7,25.637-1.041v-1.584v-5.312
			c-5.619,0.453-11.967,0.965-18.949,1.417c-10.128,0.655-7.043-2.548-4.024-9.34c1.342-3.021,4.842-8.971,1.378-10.521
			c-3.128-1.401-5.757,4.267-6.594,5.696c-15.176,25.903-7.107,7.314-16.547,8.615c-1.856,1.819-4.085,4.004-6.438,6.311
			c-7.666-6.327-4.464-6.525-14.518,0.034c-7.183-7.37-4.207-7.035-13.198,0.037c-4.36-3.559-6.761-7.247-10.02-3.23
			c-4.873,6.005-2.179,5.085-78.404,6.293c-9.782,0.155-20.797,0.343-33.365,0.587c-13.762,0.267-20.52,0.715-22.805-0.587
			c-2.989-1.703,1.692-6.403,8.494-18.461c0.952-1.686,0.143-4.475-1.291-4.6c-7.551-0.654-9.056,15.721-18.952,21.617
			c-5.435-5.048-5.705-6.14-9.876-1.186c-1.237,1.469-2.142,2.244-2.877,2.63c-0.801,0.421-1.387,0.351-1.875,0
			c-1.864-1.345-2.531-6.355-10.296-0.038c-0.021,0.017-0.04,0.022-0.061,0.038c-0.677,0.526-1.28,0.52-2.142,0
			c-1.128-0.683-2.714-2.252-5.627-4.847c-8.174,5.857-5.371,6.428-12.506-1.226c-12.516,11.496,10.097,2.954-124.335,2.418
			c-11.352-0.047-3.893-4.362-0.017-18.684c0.535-1.975-2.966-3.794-4.359-2.132c-3.46,4.132-5.79,9.244-10.881,19.028
			c-7.743-4.963-5.171-4.998-11.731-0.596c-6.623-3.801-4.358-3.972-10.307,0.151c-6.923-5.861-4.194-5.699-12.008,0.539
			c-2.753-2.114-1.219-6.851-6.197-6.446c-1.364,1.905-2.986,4.169-4.973,6.942c-9.886-0.841-19.855-0.138-29.801-0.522v6.136
			c7.026,0.324,14.031,0.212,20.145,0.354C193.489,39.194,190.679,39.047,185.628,52.378z"/>
		<path class="st0" d="M976.052,278.751c-10.129,0.654-7.044-2.55-4.024-9.341c1.342-3.019,4.842-8.969,1.378-10.519
			c-3.128-1.401-5.757,4.267-6.594,5.696c-15.176,25.902-7.107,7.313-16.547,8.613c-1.856,1.821-4.084,4.005-6.438,6.313
			c-7.666-6.328-4.464-6.525-14.518,0.032c-7.183-7.368-4.207-7.034-13.198,0.038c-4.36-3.558-6.761-7.248-10.02-3.23
			c-5.499,6.778-1.277,4.732-111.769,6.881c-31.766,0.618-26.313,2.226-14.311-19.048c0.952-1.687,0.143-4.477-1.292-4.6
			c-7.55-0.654-9.056,15.72-18.952,21.617c-5.05-4.692-5.679-5.899-9.082-2.082c-0.259,0.291-0.498,0.543-0.793,0.895
			c-0.795,0.944-1.437,1.568-2.007,2.034c-1.167,0.954-1.953,1.079-2.568,0.735c-2.013-1.127-2.458-6.697-10.474-0.176
			c-1.599,1.302-2.626-0.174-7.829-4.811c-8.174,5.858-5.371,6.428-12.505-1.226c-12.516,11.496,10.097,2.955-124.335,2.418
			c-11.352-0.045-3.893-4.362-0.018-18.682c0.535-1.976-2.966-3.795-4.359-2.133c-3.46,4.132-5.79,9.246-10.88,19.028
			c-7.743-4.963-5.171-4.996-11.731-0.594c-6.623-3.802-4.358-3.974-10.307,0.151c-6.923-5.861-4.195-5.7-12.008,0.539
			c-2.753-2.116-1.219-6.852-6.197-6.446c-1.365,1.905-2.985,4.167-4.973,6.942c-1.863-0.16-3.731-0.222-5.598-0.289
			c-0.826-0.029-1.651-0.083-2.478-0.099c-0.829-0.016-1.66-0.01-2.49-0.016c-6.403-0.05-12.823,0.128-19.235-0.119v6.137
			c6.439,0.296,12.827,0.235,18.561,0.331c0.523,0.009,1.072,0.01,1.583,0.023c0.327,0.008,0.602,0.015,0.904,0.022
			c0.924,0.022,1.767,0.045,2.48,0.077c6.941,0.317,4.242,1.61-0.202,13.341c-0.465,1.226-1.026,2.421-1.596,3.614
			c-1.257,2.633-2.541,5.27-2.819,8.295c0.667,0.151,1.318,0.026,1.963-0.218c6.132-2.335,11.331-20.862,16.628-23.92
			c0.377-0.218,3.752-0.308,2.528,4.071c-1.153,4.125,2.602,3.897,4.033,2.299c6.369-7.109,2.943-6.172,7.126-5.505
			c-0.307,2.618-0.618,5.257-0.991,8.433c1.85-0.285,3.239-0.073,3.702-0.647c6.155-7.618,5.439-10.09,6.646-0.317
			c5.215,0.129,5.061-6.156,9.041-7.083c2.552,2.463-2.275,5.427,0.652,7.879c5.156-0.1,5.773-5.836,10.272-8.632
			c178.733,0,111.427,1.893,113.839,29.326c9.035-7.41,13.808-16.989,20.773-24.42c3.413,2.528-1.5,5.697,1.726,8.433
			c11.409-6.242,3.501-7.092,14.338-8.625c-0.543,3.879-0.965,6.893-1.576,11.26c10.73-6.726,9.973-13.983,14.835-10.087
			c-0.499,2.204-1.021,4.51-1.487,6.565c0.278,0.256,0.534,0.366,0.799,0.535c0.863,0.55,1.67,0.686,2.441,0.462
			c0.916-0.268,1.8-0.968,2.697-1.953c1.435-1.577,2.917-3.769,4.702-5.816c0.267-0.306,1.234,0.029,2.308,0.093
			c-0.172,2.278-0.348,4.613-0.566,7.506c6.259-0.113,6.843-6.55,12.205-9.225c173.125,0,125.913-12.121,115.809,24.979
			c8.424-4.35,1.084,2.232,25.382-26.097c0.329-0.384,1.32-0.167,2.001-0.228c2.268,1.476-1.58,5.315,2.417,6.213
			c4.816-0.664,6.155-8.297,12.933-6.812c0,2.756,0,5.46,0,8.766c7.919-1.989,9.007-13.066,13.975-8.923
			c-0.595,2.168-1.219,4.436-2.109,7.673c2.113-0.514,3.67-0.446,4.573-1.201c6-5.027,7.302-9.614,9.918-6.113
			c-1.553,3.22-3.2,6.633-5.562,11.53c13.38-4.264,8.625-13.568,22.583-14.043c10.553-0.359,18.935-0.7,25.637-1.04v-6.896
			C989.382,277.788,983.033,278.3,976.052,278.751z"/>
		<path class="st0" d="M647.162,135.924c-1.855,1.819-4.084,4.005-6.438,6.312c-7.667-6.328-4.463-6.524-14.517,0.033
			c-7.183-7.368-4.208-7.035-13.199,0.038c-4.36-3.56-6.76-7.248-10.02-3.23c-4.872,6.004-2.18,5.085-78.313,6.291
			c-9.804,0.156-20.85,0.343-33.456,0.589c-13.768,0.267-20.526,0.715-22.808-0.589c-2.982-1.704,1.699-6.404,8.498-18.459
			c0.952-1.688,0.142-4.476-1.292-4.6c-7.55-0.655-9.056,15.72-18.952,21.616c-5.435-5.049-5.704-6.14-9.875-1.186
			c-1.235,1.468-2.14,2.242-2.874,2.628c-0.704,0.372-1.253,0.391-1.701,0.139c-2.012-1.126-2.458-6.695-10.473-0.174
			c-1.599,1.302-2.626-0.176-7.829-4.811c-8.174,5.857-5.371,6.426-12.506-1.226c-12.516,11.495,10.097,2.954-124.335,2.418
			c-11.353-0.045-3.893-4.362-0.018-18.684c0.534-1.975-2.967-3.794-4.359-2.132c-3.46,4.131-5.791,9.245-10.881,19.028
			c-7.743-4.963-5.171-4.998-11.731-0.594c-6.624-3.804-4.358-3.975-10.308,0.149c-6.924-5.861-4.194-5.7-12.008,0.539
			c-2.753-2.114-1.219-6.852-6.197-6.446c-1.365,1.906-2.986,4.169-4.973,6.942c-1.863-0.158-3.731-0.222-5.599-0.289
			c-0.827-0.029-1.651-0.082-2.478-0.097c-0.828-0.017-1.658-0.012-2.488-0.017c-6.403-0.049-12.823,0.13-19.236-0.117v6.136
			c6.44,0.296,12.828,0.235,18.563,0.331c0.523,0.009,1.072,0.012,1.582,0.023c0.326,0.009,0.6,0.015,0.902,0.023
			c0.924,0.022,1.768,0.044,2.481,0.077c6.942,0.317,4.244,1.609-0.202,13.341c-0.465,1.228-1.027,2.422-1.597,3.617
			c-1.257,2.633-2.539,5.268-2.818,8.292c0.667,0.15,1.317,0.026,1.962-0.219c6.133-2.332,11.332-20.86,16.629-23.919
			c0.378-0.218,3.752-0.308,2.528,4.071c-1.152,4.124,2.602,3.897,4.034,2.299c6.369-7.111,2.942-6.172,7.125-5.507
			c-0.308,2.618-0.618,5.258-0.991,8.433c1.85-0.283,3.239-0.073,3.702-0.647c6.155-7.618,5.439-10.088,6.645-0.315
			c5.215,0.13,5.061-6.158,9.041-7.083c2.552,2.463-2.276,5.427,0.651,7.879c5.155-0.1,5.773-5.838,10.272-8.633
			c178.732,0,111.427,1.893,113.838,29.325c9.036-7.409,13.808-16.989,20.775-24.419c3.412,2.527-1.5,5.696,1.725,8.432
			c11.41-6.242,3.502-7.091,14.339-8.625c-0.543,3.881-0.965,6.894-1.576,11.262c10.729-6.726,9.973-13.983,14.835-10.087
			c-0.499,2.204-1.022,4.508-1.487,6.563c0.278,0.257,0.534,0.366,0.798,0.535c0.863,0.551,1.671,0.686,2.441,0.462
			c0.916-0.266,1.801-0.968,2.696-1.951c1.435-1.577,2.918-3.771,4.703-5.818c0.267-0.306,1.234,0.029,2.308,0.095
			c-0.172,2.277-0.348,4.612-0.566,7.505c6.157-0.11,6.846-6.324,11.97-9.074c0.085-0.045,0.148-0.107,0.235-0.151
			c29.537,0,52.65-0.353,70.638-0.754c0.85-0.019,1.668-0.038,2.495-0.057c84.274-1.95,50.975-4.682,42.676,25.79
			c8.424-4.349,1.084,2.233,25.382-26.097c0.328-0.382,1.32-0.167,2.002-0.228c2.268,1.476-1.58,5.316,2.418,6.214
			c4.815-0.664,6.155-8.297,12.932-6.812c0,2.756,0,5.459,0,8.764c7.919-1.988,9.006-13.066,13.975-8.921
			c-0.596,2.168-1.22,4.434-2.109,7.673c2.112-0.514,3.671-0.448,4.573-1.203c6-5.026,7.303-9.614,9.918-6.111
			c-1.554,3.22-3.2,6.633-5.562,11.528c13.38-4.263,8.625-13.568,22.583-14.042c10.553-0.36,18.936-0.7,25.638-1.042v-6.894
			c-5.619,0.453-11.967,0.964-18.949,1.415c-10.129,0.655-7.044-2.548-4.025-9.34c1.342-3.021,4.842-8.971,1.379-10.521
			c-3.128-1.399-5.757,4.267-6.593,5.696C648.534,153.213,656.602,134.624,647.162,135.924z"/>
		<path class="st0" d="M819.098,485.239c0.522-1.095,1.071-2.314,1.48-3.517c0.436-1.286,0.677-2.523,0.464-3.515
			c-0.162-0.757-0.567-1.38-1.383-1.743c-1.547-0.693-2.97,0.346-4.116,1.743c-0.994,1.212-1.762,2.652-2.235,3.515
			c-0.085,0.154-0.178,0.327-0.242,0.437c-0.672,1.145-1.245,2.102-1.829,3.08c-12.614,21.112-5.696,4.289-14.718,5.533
			c-1.856,1.819-4.084,4.004-6.438,6.311c-7.666-6.326-4.463-6.524-14.518,0.034c-7.183-7.368-4.207-7.034-13.198,0.037
			c-4.36-3.56-6.761-7.247-10.02-3.23c-5.498,6.777-1.276,4.732-111.768,6.879c-29.911,0.581-26.818,2.027-16.334-15.566
			c0.65-1.091,1.323-2.239,2.024-3.481c0.006-0.012,0.005-0.026,0.01-0.036c0.59-1.08,0.433-2.53-0.099-3.515
			c-0.301-0.558-0.687-1.005-1.203-1.049c-1.291-0.112-2.397,0.302-3.407,1.049c-1.095,0.81-2.073,2.033-3.014,3.515
			c-0.679,1.069-1.346,2.257-2.027,3.517c-2.596,4.808-5.459,10.53-10.503,13.535c-5.05-4.689-5.679-5.898-9.082-2.082
			c-0.259,0.292-0.498,0.545-0.794,0.897c-0.795,0.944-1.437,1.568-2.007,2.034c-1.166,0.955-1.952,1.08-2.567,0.735
			c-2.013-1.126-2.458-6.697-10.474-0.176c-1.599,1.302-2.626-0.174-7.829-4.811c-8.175,5.857-5.371,6.427-12.506-1.226
			c-9.673,8.885,1.573,5.802-54.854,3.695c-0.823-0.032-1.626-0.062-2.478-0.093c-0.796-0.027-1.66-0.055-2.481-0.082
			c-16.024-0.542-36.92-0.991-64.522-1.101c-11.353-0.045-3.893-4.362-0.018-18.684c0.535-1.975-2.966-3.794-4.359-2.132
			c-3.46,4.131-5.789,9.245-10.88,19.028c-7.743-4.964-5.171-4.998-11.731-0.594c-6.623-3.804-4.358-3.974-10.308,0.151
			c-6.923-5.863-4.194-5.7-12.008,0.538c-2.753-2.114-1.219-6.852-6.197-6.446c-1.365,1.906-2.986,4.169-4.973,6.942
			c-9.886-0.843-19.855-0.138-29.801-0.522v6.136c7.026,0.324,14.031,0.212,20.145,0.354c11.042,0.257,8.232,0.11,3.182,13.442
			c-1.489,3.932-4.01,7.513-4.415,11.908c7.008,1.582,12.738-20.759,18.591-24.138c0.377-0.218,3.753-0.308,2.528,4.071
			c-1.153,4.124,2.602,3.897,4.033,2.299c6.369-7.111,2.943-6.172,7.125-5.507c-0.308,2.618-0.618,5.258-0.991,8.434
			c1.85-0.285,3.239-0.074,3.702-0.647c6.155-7.619,5.439-10.089,6.646-0.316c5.215,0.129,5.061-6.158,9.041-7.084
			c2.552,2.463-2.275,5.427,0.652,7.88c5.155-0.1,5.773-5.838,10.272-8.632c31.743,0,55.693,0.061,73.684,0.312
			c0.834,0.012,1.676,0.023,2.486,0.035c0.848,0.015,1.663,0.027,2.483,0.042c76.503,1.313,33.243,6.838,35.185,28.935
			c9.035-7.409,13.808-16.989,20.774-24.419c3.413,2.527-1.5,5.697,1.726,8.431c11.409-6.242,3.501-7.091,14.338-8.625
			c-0.543,3.881-0.965,6.894-1.576,11.262c10.73-6.726,9.973-13.983,14.835-10.086c-0.499,2.204-1.021,4.508-1.487,6.563
			c0.278,0.257,0.534,0.368,0.799,0.536c0.863,0.549,1.67,0.685,2.44,0.461c0.916-0.267,1.801-0.967,2.697-1.953
			c1.435-1.576,2.917-3.769,4.701-5.816c0.267-0.306,1.234,0.029,2.308,0.095c-0.172,2.277-0.348,4.612-0.566,7.506
			c6.259-0.113,6.843-6.55,12.204-9.226c173.125,0,125.913-12.121,115.809,24.979c8.424-4.349,1.084,2.233,25.383-26.097
			c0.329-0.382,1.32-0.167,2.001-0.228c2.268,1.476-1.58,5.316,2.417,6.214c4.816-0.664,6.156-8.297,12.933-6.812
			c0,2.757,0,5.459,0,8.766c7.919-1.989,9.006-13.068,13.975-8.922c-0.595,2.168-1.219,4.434-2.109,7.673
			c2.112-0.515,3.67-0.448,4.572-1.203c6.001-5.026,7.303-9.614,9.919-6.111c-1.554,3.22-3.201,6.633-5.562,11.528
			c13.38-4.263,8.625-13.568,22.583-14.042c0.862-0.029,1.622-0.058,2.455-0.087c0.848-0.029,1.68-0.06,2.498-0.089
			c0.82-0.029,1.71-0.06,2.501-0.089c7.15-0.264,13.143-0.52,18.184-0.777v-6.894c-5.224,0.421-11.103,0.891-17.51,1.318
			c-0.484,0.032-0.948,0.065-1.438,0.097c-0.387,0.026-0.719,0.035-1.068,0.048c-0.962,0.038-1.791,0.035-2.488-0.013
			c-5.662-0.382-3.055-3.557-0.469-9.375C818.506,486.477,818.795,485.874,819.098,485.239z"/>
		<path class="st0" d="M955.998,764.324c1.342-3.021,4.841-8.971,1.378-10.521c-3.128-1.401-5.757,4.267-6.594,5.696
			c-15.176,25.902-7.107,7.313-16.547,8.615c-1.856,1.819-4.084,4.003-6.438,6.312c-7.666-6.328-4.463-6.525-14.518,0.032
			c-7.183-7.368-4.207-7.034-13.198,0.039c-4.36-3.559-6.761-7.247-10.02-3.23c-5.499,6.777-1.276,4.732-111.769,6.88
			c-27.251,0.53-27.085,1.743-18.917-11.341c1.134-1.815,2.416-3.923,3.806-6.33c0.269-0.467,0.523-0.885,0.8-1.378
			c0.519-0.919,0.485-2.132,0.142-3.096c-0.286-0.807-0.781-1.447-1.433-1.504c-3.63-0.314-5.866,3.318-8.306,7.821
			c-1.056,1.946-2.148,4.045-3.41,6.072c-1.89,3.037-4.156,5.889-7.237,7.724c-0.725-0.672-1.347-1.264-1.91-1.791
			c-1.082-1.014-1.907-1.739-2.622-2.162c-1.7-1.004-2.799-0.256-5.344,2.768c-0.724,0.86-1.315,1.44-1.851,1.899
			c-0.565,0.485-1.06,0.818-1.468,0.953c-3.339,1.097-2.311-7.922-11.729-0.26c-1.6,1.302-2.627-0.174-7.829-4.811
			c-8.174,5.858-5.371,6.428-12.505-1.225c-12.517,11.494,10.097,2.954-124.335,2.418c-11.352-0.047-3.893-4.364-0.018-18.684
			c0.534-1.976-2.966-3.794-4.359-2.132c-3.46,4.131-5.79,9.244-10.881,19.026c-7.743-4.963-5.171-4.996-11.731-0.594
			c-6.623-3.802-4.358-3.974-10.307,0.151c-6.924-5.861-4.194-5.7-12.008,0.539c-2.753-2.116-1.219-6.852-6.197-6.446
			c-1.364,1.905-2.986,4.167-4.973,6.942c-9.886-0.843-19.855-0.138-29.801-0.523v6.137c7.026,0.324,14.031,0.212,20.145,0.354
			c11.043,0.257,8.233,0.11,3.182,13.442c-1.148,3.031-2.887,5.864-3.818,9.013c-0.277,0.934-0.504,1.889-0.596,2.894
			c1.825,0.413,3.563-0.818,5.24-2.894c4.76-5.895,9.022-18.743,13.351-21.244c0.377-0.218,3.752-0.307,2.528,4.072
			c-1.152,4.124,2.602,3.896,4.034,2.299c6.369-7.111,2.942-6.174,7.126-5.507c-0.308,2.618-0.618,5.258-0.992,8.433
			c1.851-0.285,3.239-0.073,3.703-0.647c6.155-7.618,5.439-10.09,6.645-0.317c5.216,0.13,5.061-6.156,9.041-7.083
			c2.552,2.464-2.276,5.427,0.652,7.881c5.155-0.102,5.773-5.838,10.271-8.633c157.914,0,123.775,1.482,115.341,20.745
			c-0.487,1.111-0.889,2.281-1.162,3.515c-0.249,1.12-0.389,2.293-0.396,3.517c-0.003,0.507,0.01,1.021,0.057,1.547
			c0.608-0.498,1.153-1.03,1.725-1.547c1.259-1.139,2.451-2.31,3.562-3.517c1.063-1.154,2.082-2.324,3.047-3.515
			c4.38-5.405,7.963-11.064,12.441-15.839c3.412,2.527-1.501,5.696,1.726,8.431c11.409-6.242,3.502-7.09,14.339-8.625
			c-0.147,1.049-0.284,2.032-0.42,2.999c-0.197,1.403-0.39,2.789-0.594,4.246c-0.175,1.249-0.356,2.546-0.563,4.017
			c10.73-6.726,9.974-13.983,14.834-10.088c-0.059,0.263-0.12,0.531-0.179,0.793c-0.443,1.96-0.897,3.961-1.307,5.771
			c3.988,3.682,6.516-2.046,10.637-6.772c0.267-0.306,1.234,0.029,2.309,0.093c-0.172,2.278-0.349,4.613-0.567,7.506
			c6.259-0.112,6.843-6.55,12.205-9.225c173.124,0,125.913-12.121,115.808,24.979c8.423-4.35,1.084,2.233,25.382-26.097
			c0.329-0.382,1.32-0.167,2.001-0.228c2.268,1.476-1.58,5.316,2.418,6.214c4.816-0.664,6.156-8.297,12.932-6.811
			c0,2.756,0,5.459,0,8.764c7.92-1.989,9.007-13.066,13.975-8.921c-0.595,2.168-1.219,4.434-2.109,7.671
			c2.113-0.514,3.671-0.446,4.573-1.201c6-5.026,7.303-9.614,9.918-6.111c-1.553,3.218-3.2,6.633-5.561,11.528
			c13.38-4.263,8.625-13.568,22.583-14.043c10.553-0.359,18.935-0.7,25.637-1.041v-6.896c-5.619,0.453-11.966,0.965-18.949,1.417
			C949.893,774.319,952.979,771.115,955.998,764.324z"/>
		<path class="st0" d="M498.583,730.722c-5.619,0.453-11.967,0.965-18.949,1.415c-10.129,0.655-7.044-2.549-4.025-9.34
			c1.342-3.019,4.842-8.971,1.379-10.519c-3.128-1.401-5.757,4.267-6.593,5.696c-15.176,25.902-7.107,7.313-16.547,8.613
			c-1.856,1.819-4.084,4.005-6.438,6.312c-7.666-6.326-4.463-6.524-14.517,0.033c-7.183-7.368-4.208-7.034-13.199,0.039
			c-4.36-3.559-6.761-7.247-10.02-3.231c-5.499,6.777-1.276,4.734-111.769,6.882c-31.765,0.616-26.313,2.226-14.31-19.049
			c0.952-1.687,0.142-4.477-1.292-4.6c-7.55-0.654-9.056,15.721-18.952,21.617c-5.051-4.692-5.679-5.899-9.083-2.081
			c-0.259,0.292-0.497,0.543-0.792,0.895c-0.795,0.943-1.436,1.567-2.007,2.033c-1.166,0.954-1.952,1.079-2.566,0.735
			c-2.013-1.126-2.458-6.697-10.474-0.176c-1.6,1.302-2.626-0.174-7.829-4.811c-8.174,5.857-5.372,6.428-12.506-1.225
			c-12.516,11.495,10.097,2.954-124.335,2.418c-11.353-0.047-3.893-4.364-0.018-18.685c0.534-1.975-2.967-3.792-4.359-2.13
			c-3.46,4.131-5.79,9.244-10.88,19.026c-7.744-4.963-5.171-4.996-11.731-0.594c-6.624-3.802-4.358-3.974-10.308,0.151
			c-6.924-5.861-4.194-5.7-12.008,0.538c-2.753-2.114-1.219-6.851-6.197-6.444c-1.365,1.905-2.985,4.167-4.973,6.941
			c-9.886-0.842-19.855-0.137-29.801-0.522v6.136c7.026,0.326,14.031,0.212,20.145,0.355c11.042,0.259,8.232,0.11,3.181,13.443
			c-1.489,3.93-4.01,7.512-4.415,11.907c7.008,1.582,12.738-20.759,18.591-24.138c0.378-0.218,3.752-0.308,2.528,4.071
			c-1.153,4.125,2.602,3.897,4.034,2.299c6.369-7.109,2.942-6.172,7.125-5.507c-0.308,2.62-0.618,5.26-0.991,8.435
			c1.851-0.285,3.239-0.073,3.703-0.647c6.155-7.618,5.438-10.09,6.645-0.317c5.216,0.13,5.061-6.156,9.041-7.083
			c2.552,2.463-2.276,5.427,0.651,7.88c5.155-0.1,5.773-5.838,10.272-8.632c178.732,0,111.427,1.893,113.838,29.325
			c9.036-7.41,13.808-16.989,20.775-24.419c3.412,2.525-1.5,5.696,1.725,8.43c11.41-6.242,3.502-7.091,14.339-8.625
			c-0.543,3.883-0.965,6.894-1.576,11.264c10.729-6.727,9.973-13.985,14.835-10.088c-0.499,2.204-1.022,4.51-1.487,6.565
			c3.387,3.127,5.73-0.539,8.88-4.609c0.559-0.722,1.136-1.452,1.758-2.164c0.09-0.104,0.282-0.122,0.511-0.113
			c0.445,0.017,1.087,0.164,1.796,0.206c-0.026,0.346-0.054,0.72-0.08,1.071c-0.09,1.18-0.184,2.437-0.284,3.753
			c-0.065,0.866-0.129,1.709-0.202,2.682c1.144-0.02,2.055-0.305,2.884-0.686c1.034-0.476,1.905-1.153,2.672-1.977
			c0.705-0.757,1.361-1.591,2.04-2.447c1.23-1.546,2.575-3.101,4.609-4.117c173.125,0,125.913-12.121,115.809,24.979
			c8.424-4.349,1.084,2.235,25.382-26.095c0.328-0.384,1.32-0.169,2.002-0.228c2.267,1.474-1.58,5.316,2.418,6.214
			c4.814-0.665,6.155-8.298,12.932-6.811c0,2.755,0,5.459,0,8.764c7.919-1.989,9.006-13.066,13.975-8.921
			c-0.596,2.168-1.22,4.434-2.11,7.671c2.112-0.514,3.671-0.446,4.573-1.201c6-5.027,7.303-9.614,9.918-6.113
			c-1.554,3.22-3.2,6.634-5.562,11.53c13.38-4.264,8.625-13.57,22.583-14.043c10.553-0.359,18.936-0.7,25.638-1.041V730.722z"/>
	</g>
</g>
<g style="display:none;">
</g>
</svg>
