<svg width="39" height="39" viewBox="0 0 39 39" fill="none" xmlns="http://www.w3.org/2000/svg">
<g clip-path="url(#clip0_9_3966)">
<path fill-rule="evenodd" clip-rule="evenodd" d="M38.4512 19.7408C38.4512 30.2072 29.9665 38.692 19.5 38.692C9.03352 38.692 0.548767 30.2072 0.548767 19.7408C0.548767 9.2743 9.03352 0.789551 19.5 0.789551C29.9665 0.789551 38.4512 9.2743 38.4512 19.7408ZM20.1791 14.7802C18.3358 15.5469 14.6518 17.1337 9.12718 19.5407C8.23006 19.8975 7.76011 20.2465 7.71733 20.5877C7.64503 21.1645 8.36727 21.3916 9.35077 21.7008C9.48456 21.7429 9.62317 21.7865 9.76528 21.8327C10.7329 22.1472 12.0345 22.5152 12.7112 22.5298C13.325 22.5431 14.01 22.29 14.7664 21.7707C19.9282 18.2863 22.5928 16.5251 22.7601 16.4871C22.8781 16.4603 23.0417 16.4266 23.1525 16.5251C23.2633 16.6236 23.2524 16.8102 23.2406 16.8602C23.1691 17.1652 20.334 19.801 18.8669 21.1649C18.4095 21.5901 18.0851 21.8918 18.0188 21.9606C17.8702 22.115 17.7188 22.2609 17.5732 22.4012C16.6743 23.2678 16.0002 23.9177 17.6106 24.9789C18.3844 25.4888 19.0037 25.9106 19.6215 26.3313C20.2962 26.7907 20.9692 27.249 21.8399 27.8198C22.0617 27.9652 22.2735 28.1162 22.4799 28.2633C23.2651 28.8231 23.9705 29.326 24.842 29.2458C25.3484 29.1992 25.8715 28.723 26.1371 27.3029C26.765 23.9466 27.999 16.6746 28.2842 13.6779C28.3092 13.4154 28.2778 13.0794 28.2525 12.9319C28.2273 12.7844 28.1745 12.5742 27.9828 12.4187C27.7558 12.2344 27.4052 12.1956 27.2485 12.1983C26.5357 12.2109 25.4421 12.5911 20.1791 14.7802Z" fill="white"/>
</g>
<defs>
<clipPath id="clip0_9_3966">
<rect width="37.9024" height="37.9024" fill="white" transform="translate(0.548767 0.789551)"/>
</clipPath>
</defs>
</svg>
