<svg width="39" height="39" viewBox="0 0 39 39" fill="none" xmlns="http://www.w3.org/2000/svg">
<g clip-path="url(#clip0_9_3962)">
<path d="M12.1981 35.1387C26.4974 35.1387 34.3207 23.289 34.3207 13.0161C34.3207 12.6829 34.3133 12.3424 34.2985 12.0093C35.8204 10.9087 37.1337 9.54546 38.1769 7.98364C36.7595 8.61424 35.2546 9.02609 33.7137 9.2051C35.3362 8.23255 36.551 6.7047 37.1331 4.9048C35.6067 5.80939 33.9374 6.44751 32.1969 6.79178C31.0241 5.54566 29.4735 4.72058 27.7848 4.44411C26.0961 4.16763 24.3633 4.45516 22.8544 5.26224C21.3455 6.06932 20.1445 7.35099 19.437 8.90911C18.7296 10.4672 18.5551 12.215 18.9406 13.8822C15.8499 13.7271 12.8263 12.9242 10.0658 11.5256C7.30536 10.127 4.8696 8.16389 2.91648 5.76353C1.9238 7.47503 1.62004 9.50028 2.06693 11.4277C2.51382 13.3551 3.67784 15.04 5.3224 16.1401C4.08776 16.1009 2.88017 15.7685 1.7994 15.1703V15.2665C1.79829 17.0626 2.41921 18.8037 3.55662 20.1937C4.69403 21.5838 6.27772 22.537 8.03849 22.8914C6.89479 23.2044 5.69443 23.25 4.5303 23.0247C5.02715 24.5693 5.99385 25.9203 7.29548 26.8891C8.59711 27.8579 10.1687 28.3962 11.791 28.4287C9.03687 30.5921 5.63473 31.7656 2.13252 31.76C1.51143 31.7591 0.890959 31.721 0.274414 31.646C3.83228 33.9286 7.97103 35.1409 12.1981 35.1387Z" fill="white"/>
</g>
<defs>
<clipPath id="clip0_9_3962">
<rect width="37.9024" height="37.9024" fill="white" transform="translate(0.274414 0.789551)"/>
</clipPath>
</defs>
</svg>
